<?xml version="1.0" standalone="no"?>
<!DOCTYPE svg PUBLIC "-//W3C//DTD SVG 20010904//EN"
 "http://www.w3.org/TR/2001/REC-SVG-20010904/DTD/svg10.dtd">
<svg version="1.0" xmlns="http://www.w3.org/2000/svg"
 width="728.000000pt" height="650.000000pt" viewBox="0 0 728.000000 650.000000"
 preserveAspectRatio="xMidYMid meet">
<metadata>
Created by potrace 1.16, written by Peter Selinger 2001-2019
</metadata>
<g transform="translate(0.000000,650.000000) scale(0.145600,-0.130000)"
fill="#000000" stroke="none">
<path d="M748 3450 c-29 -43 -27 -74 7 -124 13 -20 23 -36 22 -36 -2 0 -27 11
-55 25 -58 28 -77 59 -66 108 4 21 3 27 -5 23 -6 -4 -9 -12 -6 -17 4 -5 2 -9
-4 -9 -10 0 -27 -38 -23 -53 1 -4 -10 -4 -24 -1 -34 9 -29 -14 9 -36 14 -8 36
-28 48 -44 21 -27 21 -28 2 -18 -11 6 -25 17 -32 25 -6 8 -25 20 -41 27 -35
15 -37 31 -9 71 26 37 12 37 -36 -1 -21 -16 -43 -30 -50 -30 -20 0 -101 -93
-129 -149 -56 -109 -71 -242 -40 -349 23 -80 39 -108 98 -170 58 -62 92 -82
136 -82 36 0 105 33 118 56 8 15 29 4 150 -79 81 -56 151 -97 165 -97 45 0 87
59 87 122 0 25 3 29 18 23 34 -15 86 -17 137 -6 44 10 59 20 94 61 41 48 51
68 29 54 -7 -4 -8 -3 -4 5 4 6 11 9 15 6 19 -11 71 148 71 215 0 54 -23 157
-39 173 -8 8 -11 6 -11 -6 0 -20 -4 -21 -31 -7 -10 6 -19 17 -19 25 0 32 -136
8 -231 -41 -28 -14 -53 -24 -55 -21 -2 2 32 21 76 41 110 52 119 71 32 69 -43
-1 -41 0 23 12 80 16 131 10 147 -15 10 -16 13 -16 26 -4 33 33 -38 64 -146
64 -62 0 -64 -1 -120 -52 l-57 -53 46 55 c59 72 99 93 162 86 28 -3 45 -1 42
4 -9 15 -75 23 -98 13 -21 -10 -22 -8 -19 26 3 27 -2 41 -17 55 -21 19 -21 19
-21 -15 0 -42 -21 -74 -63 -95 -18 -9 -43 -26 -56 -38 -15 -13 -7 5 22 48 51
75 58 113 27 141 -20 18 -20 17 -20 -10 0 -31 -36 -95 -53 -95 -7 0 -22 -3
-34 -6 -17 -5 -23 -2 -23 10 0 9 -9 34 -20 56 -11 22 -20 48 -20 60 0 13 -7
20 -20 20 -16 0 -20 -7 -20 -37 0 -21 9 -51 20 -68 27 -41 25 -46 -12 -33 -54
18 -77 45 -80 97 l-3 46 -17 -25z m129 -260 c29 -12 58 -29 65 -38 11 -13 9
-13 -12 1 -32 22 -60 22 -61 0 -1 -12 -3 -10 -8 6 -10 36 -31 38 -32 4 l-1
-28 -10 33 c-6 18 -18 32 -27 32 -9 0 -27 3 -41 5 -23 5 -23 5 -4 -4 35 -16
40 -33 7 -26 -25 5 -26 4 -5 -4 30 -14 28 -18 -8 -18 -16 0 -27 4 -24 8 2 4
-2 10 -8 12 -10 4 -9 8 2 17 12 9 10 10 -10 8 -31 -4 -39 -41 -14 -69 9 -10
14 -19 10 -19 -12 0 -45 44 -46 60 0 12 -4 11 -15 -4 -7 -10 -18 -15 -24 -11
-6 3 -16 -6 -21 -21 -12 -31 -1 -50 33 -57 l22 -4 -22 -2 c-12 0 -30 9 -41 23
-29 38 -55 8 -72 -85 -9 -45 -8 -54 7 -66 10 -8 12 -11 4 -7 -10 5 -12 3 -6
-5 4 -7 26 -21 49 -31 l41 -19 -32 0 c-20 -1 -42 8 -60 23 -24 21 -27 30 -27
79 3 177 208 286 391 207z m83 -485 c44 -57 66 -113 51 -128 -6 -6 -36 9 -78
38 -100 70 -113 84 -113 119 0 31 0 31 49 28 47 -4 52 -7 91 -57z"/>
<path d="M1610 3141 c0 -11 5 -21 11 -23 15 -5 -62 -268 -78 -268 -7 0 -13 -9
-13 -20 0 -17 7 -20 50 -20 43 0 50 3 50 20 0 11 -7 20 -15 20 -18 0 -19 9 -5
44 9 24 15 26 65 26 50 0 56 -2 65 -26 14 -35 13 -44 -5 -44 -8 0 -15 -9 -15
-20 0 -17 7 -20 50 -20 40 0 50 3 50 16 0 9 -6 22 -14 28 -20 15 -91 259 -77
264 6 2 11 12 11 23 0 17 -8 19 -65 19 -57 0 -65 -2 -65 -19z"/>
<path d="M3067 3132 c-21 -22 -27 -38 -27 -73 0 -63 28 -89 96 -89 59 0 74
-12 74 -60 0 -47 -15 -60 -65 -60 -46 0 -65 13 -65 47 0 16 -6 23 -20 23 -30
0 -28 -59 3 -88 19 -18 35 -22 83 -22 79 0 104 23 104 97 0 75 -24 101 -98
105 l-57 3 -3 38 c-4 48 11 67 53 67 34 0 65 -25 65 -53 0 -10 8 -17 20 -17
31 0 26 50 -8 83 -23 22 -37 27 -78 27 -42 0 -55 -5 -77 -28z"/>
<path d="M1887 3082 c-58 -60 -15 -142 74 -142 49 0 69 -13 69 -45 0 -32 -19
-45 -65 -45 -46 0 -65 13 -65 47 0 16 -6 23 -20 23 -28 0 -27 -42 2 -80 20
-28 27 -30 83 -30 76 0 105 24 105 86 0 57 -29 82 -100 86 l-55 3 0 40 0 40
43 3 c50 4 72 -10 72 -44 0 -17 6 -24 20 -24 16 0 20 7 20 33 0 52 -33 77
-101 77 -47 0 -59 -4 -82 -28z"/>
<path d="M2120 3065 c0 -38 3 -45 20 -45 16 0 20 7 20 30 0 27 3 30 30 30 l30
0 0 -114 c0 -111 -1 -115 -22 -118 -13 -2 -24 -11 -26 -20 -3 -16 5 -18 67
-18 64 0 71 2 71 20 0 15 -7 20 -25 20 l-26 0 3 113 3 112 30 0 c25 0 30 -4
33 -27 6 -49 32 -34 32 17 l0 45 -120 0 -120 0 0 -45z"/>
<path d="M2410 3096 c0 -7 9 -16 20 -19 18 -5 20 -14 20 -115 0 -101 -2 -110
-20 -115 -11 -3 -20 -12 -20 -21 0 -13 11 -16 55 -16 48 0 55 2 55 20 0 11 -7
20 -15 20 -10 0 -15 11 -15 35 0 33 2 35 35 35 29 0 37 -5 52 -32 9 -18 16
-43 14 -55 -2 -21 2 -23 38 -23 34 0 41 3 41 20 0 11 -6 20 -14 20 -8 0 -23
15 -34 34 l-20 34 24 23 c34 32 35 116 1 147 -21 19 -34 22 -120 22 -76 0 -97
-3 -97 -14z"/>
<path d="M2762 3087 c-20 -21 -22 -34 -22 -121 0 -83 3 -102 21 -127 19 -27
25 -29 87 -29 58 0 69 3 94 27 27 26 28 31 28 124 0 82 -3 100 -21 123 -19 24
-27 26 -93 26 -63 0 -75 -3 -94 -23z m156 -29 c15 -15 16 -161 2 -189 -9 -15
-22 -19 -63 -19 -29 0 -58 5 -65 12 -16 16 -16 180 0 196 16 16 110 16 126 0z"/>
<path d="M3320 3095 c0 -8 7 -15 15 -15 12 0 15 -19 15 -115 0 -96 -3 -115
-15 -115 -8 0 -15 -9 -15 -20 0 -18 7 -20 55 -20 48 0 55 2 55 20 0 11 -7 20
-15 20 -11 0 -15 12 -15 45 l0 45 70 0 70 0 0 -45 c0 -33 -4 -45 -15 -45 -8 0
-15 -9 -15 -20 0 -18 7 -20 55 -20 44 0 55 3 55 16 0 9 -9 18 -20 21 -18 5
-20 14 -20 115 0 101 2 110 20 115 11 3 20 12 20 19 0 10 -15 14 -55 14 -42 0
-55 -3 -55 -15 0 -8 7 -15 15 -15 11 0 15 -12 15 -50 l0 -50 -70 0 -70 0 0 50
c0 38 4 50 15 50 8 0 15 7 15 15 0 12 -13 15 -55 15 -42 0 -55 -3 -55 -15z"/>
<path d="M3711 3081 c-18 -24 -21 -44 -21 -123 0 -90 1 -95 28 -121 25 -24 36
-27 94 -27 62 0 68 2 87 29 18 25 21 44 21 128 0 91 -2 101 -23 121 -19 18
-35 22 -94 22 -68 0 -73 -2 -92 -29z m157 -23 c18 -18 16 -182 -2 -197 -8 -7
-37 -11 -68 -9 l-53 3 -3 94 c-1 52 -1 100 2 108 7 17 107 18 124 1z"/>
<path d="M4017 3082 c-25 -26 -27 -34 -27 -123 0 -91 1 -96 28 -122 24 -23 37
-27 86 -27 50 0 60 4 81 28 31 34 34 82 5 82 -14 0 -20 -7 -20 -23 0 -34 -19
-47 -66 -47 -59 0 -65 12 -62 121 l3 94 48 3 c55 4 77 -9 77 -44 0 -17 6 -24
20 -24 30 0 28 59 -3 88 -19 18 -35 22 -83 22 -53 0 -64 -3 -87 -28z"/>
<path d="M4270 3096 c0 -7 9 -16 20 -19 18 -5 20 -14 20 -115 0 -101 -2 -110
-20 -115 -11 -3 -20 -12 -20 -21 0 -13 11 -16 55 -16 48 0 55 2 55 20 0 11 -7
20 -15 20 -11 0 -15 12 -15 45 0 41 2 45 24 45 17 0 34 -13 55 -42 18 -24 27
-44 21 -46 -5 -2 -10 -12 -10 -23 0 -16 7 -19 50 -19 43 0 50 3 50 20 0 11 -6
20 -14 20 -12 0 -64 63 -89 106 -9 15 70 124 89 124 7 0 14 7 14 15 0 11 -12
15 -51 15 -50 0 -51 -1 -45 -26 5 -19 -1 -35 -24 -65 -18 -21 -40 -39 -51 -39
-16 0 -19 7 -19 50 0 38 4 50 15 50 8 0 15 7 15 15 0 12 -13 15 -55 15 -40 0
-55 -4 -55 -14z"/>
</g>
</svg>
